<?xml version="1.0" encoding="iso-8859-1"?>
<!-- Generator: Adobe Illustrator 19.0.0, SVG Export Plug-In . SVG Version: 6.00 Build 0)  -->
<svg version="1.1" id="Layer_1" xmlns="http://www.w3.org/2000/svg" xmlns:xlink="http://www.w3.org/1999/xlink" x="0px" y="0px"
	 viewBox="0 0 512 512" style="enable-background:new 0 0 512 512;" xml:space="preserve">
<g>
	<g>
		<path d="M430.028,264.668c-0.456-0.451-78.784-88.755-78.784-88.755l142.656-127.22l-175.536,0.285
			C304.888,49,292.247,54.289,282.77,63.871c-0.452,0.456-88.756,78.783-88.756,78.783L66.793,0l0.286,175.536
			c0.023,13.477,5.311,26.117,14.893,35.594c0.456,0.451,78.783,88.755,78.783,88.755L18.101,427.107l175.536-0.286
			c13.475-0.022,26.116-5.311,35.593-14.893c0.452-0.456,9.638-8.228,9.638-8.228V512h34.263V373.145l44.854-40.002l127.221,142.654
			l-0.286-175.536C444.898,286.785,439.61,274.145,430.028,264.668z M216.96,249.763l-30.633,27.319l-46.076-51.666l77.149-0.729
			C214.643,232.76,214.472,241.555,216.96,249.763z M216.819,168.226l51.666-46.075l0.728,77.147
			c-8.073-2.755-16.869-2.926-25.075-0.439L216.819,168.226z M243.515,353.649l-0.728-77.148c8.073,2.756,16.869,2.927,25.075,0.439
			l27.319,30.633L243.515,353.649z M294.601,251.112c2.756-8.073,2.927-16.869,0.44-25.076l30.633-27.319l46.076,51.666
			L294.601,251.112z"/>
	</g>
</g>
<g>
</g>
<g>
</g>
<g>
</g>
<g>
</g>
<g>
</g>
<g>
</g>
<g>
</g>
<g>
</g>
<g>
</g>
<g>
</g>
<g>
</g>
<g>
</g>
<g>
</g>
<g>
</g>
<g>
</g>
</svg>
